<svg width="471" height="457" viewBox="0 0 471 457" fill="none" xmlns="http://www.w3.org/2000/svg">
<path d="M44.5927 104.501C24.1594 158.919 41.7941 232.367 73.3621 289.829C154.638 439.029 352.609 354.664 349.195 286.913C353.843 222.263 295.711 203.068 275.989 166.821C165.559 -37.7239 61.0301 58.6281 44.5927 104.501Z" fill="#007CFF"/>
<mask id="mask0_196_727" style="mask-type:alpha" maskUnits="userSpaceOnUse" x="35" y="41" width="315" height="332">
<path d="M35.8281 41.3335H349.459V372.802H35.8281V41.3335Z" fill="white"/>
</mask>
<g mask="url(#mask0_196_727)">
<g opacity="0.899994">
<path d="M44.5927 104.501C24.1594 158.919 41.7941 232.367 73.3621 289.829C154.638 439.029 352.609 354.664 349.195 286.913C353.843 222.263 295.711 203.068 275.989 166.821C165.559 -37.7239 61.0301 58.6281 44.5927 104.501Z" fill="white"/>
</g>
</g>
<path d="M101.907 258.97V208.521L59.0319 258.97H101.907ZM101.907 293.526H20.7666V256.893L101.907 160.443H140.727V258.97H160.848V293.526H140.727V323.49H101.907V293.526Z" fill="#007CFF"/>
<path d="M218.914 242.786C218.914 263.2 220.718 277.142 224.326 284.614C227.935 292.088 233.166 295.822 240.018 295.822C244.538 295.822 248.457 294.238 251.774 291.065C255.09 287.894 257.531 282.884 259.102 276.03C260.669 269.178 261.451 258.497 261.451 243.989C261.451 222.702 259.647 208.396 256.039 201.069C252.43 193.742 247.018 190.078 239.801 190.078C232.437 190.078 227.115 193.816 223.834 201.288C220.554 208.761 218.914 222.593 218.914 242.786ZM174.735 242.677C174.735 212.205 180.219 190.882 191.193 178.706C202.165 166.532 218.875 160.444 241.331 160.444C252.119 160.444 260.977 161.776 267.903 164.434C274.829 167.097 280.479 170.558 284.854 174.824C289.227 179.089 292.673 183.573 295.187 188.274C297.702 192.977 299.726 198.462 301.257 204.733C304.245 216.69 305.739 229.154 305.739 242.132C305.739 271.218 300.818 292.506 290.977 305.993C281.135 319.481 264.185 326.222 240.129 326.222C226.641 326.222 215.742 324.072 207.431 319.77C199.121 315.47 192.303 309.164 186.983 300.853C183.117 294.948 180.11 286.873 177.962 276.632C175.81 266.389 174.735 255.072 174.735 242.677" fill="#007CFF"/>
<path d="M400.659 258.97V208.521L357.784 258.97H400.659ZM400.659 293.526H319.519V256.893L400.659 160.443H439.479V258.97H459.6V293.526H439.479V323.49H400.659V293.526Z" fill="#007CFF"/>
<mask id="mask1_196_727" style="mask-type:alpha" maskUnits="userSpaceOnUse" x="0" y="0" width="471" height="457">
<path d="M0.523438 0.186754H470.564V456.969H0.523438V0.186754Z" fill="white"/>
</mask>
<g mask="url(#mask1_196_727)">
<g opacity="0.300003">
<path d="M172.935 104.158C172.935 105.531 171.822 106.644 170.449 106.644C169.075 106.644 167.962 105.531 167.962 104.158C167.962 102.784 169.075 101.671 170.449 101.671C171.822 101.671 172.935 102.784 172.935 104.158Z" fill="#007CFF"/>
<path d="M4.05144 198.172C4.05144 199.145 3.26077 199.936 2.28744 199.936C1.31277 199.936 0.523438 199.145 0.523438 198.172C0.523438 197.199 1.31277 196.408 2.28744 196.408C3.26077 196.408 4.05144 197.199 4.05144 198.172Z" fill="#007CFF"/>
<path d="M295.596 454.444C295.596 455.839 294.466 456.969 293.072 456.969C291.678 456.969 290.547 455.839 290.547 454.444C290.547 453.051 291.678 451.919 293.072 451.919C294.466 451.919 295.596 453.051 295.596 454.444Z" fill="#007CFF"/>
<path d="M355.428 352.667C355.428 353.64 354.639 354.431 353.664 354.431C352.69 354.431 351.9 353.64 351.9 352.667C351.9 351.693 352.69 350.903 353.664 350.903C354.639 350.903 355.428 351.693 355.428 352.667Z" fill="#007CFF"/>
<path d="M470.563 37.4909C470.563 38.4655 469.774 39.2549 468.799 39.2549C467.824 39.2549 467.035 38.4655 467.035 37.4909C467.035 36.5175 467.824 35.7282 468.799 35.7282C469.774 35.7282 470.563 36.5175 470.563 37.4909Z" fill="#007CFF"/>
<path d="M135.339 1.9506C135.339 2.92393 134.549 3.7146 133.575 3.7146C132.6 3.7146 131.811 2.92393 131.811 1.9506C131.811 0.977266 132.6 0.1866 133.575 0.1866C134.549 0.1866 135.339 0.977266 135.339 1.9506Z" fill="#007CFF"/>
<path d="M277.024 92.5913C277.024 93.5647 276.235 94.354 275.26 94.354C274.285 94.354 273.496 93.5647 273.496 92.5913C273.496 91.6167 274.285 90.8273 275.26 90.8273C276.235 90.8273 277.024 91.6167 277.024 92.5913Z" fill="#007CFF"/>
</g>
</g>
<path d="M122.524 65.1473C122.524 81.2819 109.446 94.3606 93.311 94.3606C77.1777 94.3606 64.0977 81.2819 64.0977 65.1473C64.0977 49.0126 77.1777 35.9339 93.311 35.9339C109.446 35.9339 122.524 49.0126 122.524 65.1473Z" fill="#007CFF"/>
<mask id="mask2_196_727" style="mask-type:alpha" maskUnits="userSpaceOnUse" x="64" y="35" width="59" height="60">
<path d="M64.0967 35.9347H122.523V94.3613H64.0967V35.9347Z" fill="white"/>
</mask>
<g mask="url(#mask2_196_727)">
<g opacity="0.699997">
<path d="M122.523 65.1473C122.523 81.2819 109.445 94.3606 93.31 94.3606C77.1767 94.3606 64.0967 81.2819 64.0967 65.1473C64.0967 49.0126 77.1767 35.9339 93.31 35.9339C109.445 35.9339 122.523 49.0126 122.523 65.1473Z" fill="white"/>
</g>
</g>
<mask id="mask3_196_727" style="mask-type:alpha" maskUnits="userSpaceOnUse" x="64" y="43" width="49" height="52">
<path d="M64.1016 43.1067H112.463V94.3547H64.1016V43.1067Z" fill="white"/>
</mask>
<g mask="url(#mask3_196_727)">
<g opacity="0.199997">
<path d="M83.2439 43.107C79.1492 43.107 75.2625 43.9536 71.7225 45.467C66.9892 50.6576 64.1025 57.571 64.1025 65.1483C64.1025 81.279 77.1785 94.355 93.3079 94.355C97.4159 94.355 101.331 93.5083 104.884 91.9803V91.9683C109.591 86.7763 112.464 79.891 112.464 72.3256C112.464 56.183 99.3879 43.107 83.2439 43.107Z" fill="#007CFF"/>
</g>
</g>
<mask id="mask4_196_727" style="mask-type:alpha" maskUnits="userSpaceOnUse" x="74" y="48" width="7" height="6">
<path d="M74.998 48.1601H80.338V53.5015H74.998V48.1601Z" fill="white"/>
</mask>
<g mask="url(#mask4_196_727)">
<g opacity="0.199997">
<path d="M80.3384 50.8308C80.3384 52.3055 79.1424 53.5015 77.6677 53.5015C76.1931 53.5015 74.9971 52.3055 74.9971 50.8308C74.9971 49.3561 76.1931 48.1601 77.6677 48.1601C79.1424 48.1601 80.3384 49.3561 80.3384 50.8308Z" fill="#007CFF"/>
</g>
</g>
<mask id="mask5_196_727" style="mask-type:alpha" maskUnits="userSpaceOnUse" x="106" y="45" width="6" height="6">
<path d="M106.41 45.4895H111.751V50.8308H106.41V45.4895Z" fill="white"/>
</mask>
<g mask="url(#mask5_196_727)">
<g opacity="0.199997">
<path d="M111.751 48.1604C111.751 49.6351 110.556 50.8311 109.08 50.8311C107.605 50.8311 106.409 49.6351 106.409 48.1604C106.409 46.6857 107.605 45.4897 109.08 45.4897C110.556 45.4897 111.751 46.6857 111.751 48.1604Z" fill="#007CFF"/>
</g>
</g>
<mask id="mask6_196_727" style="mask-type:alpha" maskUnits="userSpaceOnUse" x="97" y="62" width="10" height="10">
<path d="M97.6709 62.8307H106.411V71.572H97.6709V62.8307Z" fill="white"/>
</mask>
<g mask="url(#mask6_196_727)">
<g opacity="0.199997">
<path d="M106.411 67.202C106.411 69.6153 104.455 71.5713 102.04 71.5713C99.6269 71.5713 97.6709 69.6153 97.6709 67.202C97.6709 64.7873 99.6269 62.8313 102.04 62.8313C104.455 62.8313 106.411 64.7873 106.411 67.202Z" fill="#007CFF"/>
</g>
</g>
<mask id="mask7_196_727" style="mask-type:alpha" maskUnits="userSpaceOnUse" x="80" y="73" width="13" height="13">
<path d="M80.8398 73.82H92.5225V85.5027H80.8398V73.82Z" fill="white"/>
</mask>
<g mask="url(#mask7_196_727)">
<g opacity="0.199997">
<path d="M92.5225 79.6616C92.5225 82.8883 89.9065 85.5029 86.6812 85.5029C83.4545 85.5029 80.8398 82.8883 80.8398 79.6616C80.8398 76.4349 83.4545 73.8203 86.6812 73.8203C89.9065 73.8203 92.5225 76.4349 92.5225 79.6616Z" fill="#007CFF"/>
</g>
</g>
<path d="M440.23 411.665C440.23 425.823 428.753 437.3 414.596 437.3C400.438 437.3 388.961 425.823 388.961 411.665C388.961 397.508 400.438 386.031 414.596 386.031C428.753 386.031 440.23 397.508 440.23 411.665Z" fill="#007CFF"/>
<mask id="mask8_196_727" style="mask-type:alpha" maskUnits="userSpaceOnUse" x="388" y="386" width="53" height="52">
<path d="M388.961 386.031H440.23V437.3H388.961V386.031Z" fill="white"/>
</mask>
<g mask="url(#mask8_196_727)">
<g opacity="0.300003">
<path d="M440.23 411.665C440.23 425.823 428.753 437.3 414.596 437.3C400.438 437.3 388.961 425.823 388.961 411.665C388.961 397.508 400.438 386.031 414.596 386.031C428.753 386.031 440.23 397.508 440.23 411.665Z" fill="white"/>
</g>
</g>
<mask id="mask9_196_727" style="mask-type:alpha" maskUnits="userSpaceOnUse" x="397" y="390" width="44" height="48">
<path d="M397.755 390.703H440.231V437.301H397.755V390.703Z" fill="white"/>
</mask>
<g mask="url(#mask9_196_727)">
<g opacity="0.399994">
<path d="M430.778 391.785C428.446 391.078 425.96 390.702 423.394 390.702C409.235 390.702 397.755 402.182 397.755 416.341C397.755 424.365 401.434 431.513 407.208 436.218C409.54 436.925 412.024 437.301 414.592 437.301C428.751 437.301 440.231 425.821 440.231 411.662C440.231 403.64 436.552 396.477 430.778 391.785Z" fill="#007CFF"/>
</g>
</g>
<path d="M390.106 419.263C362.729 432.147 383.152 442.075 421.722 428.214C457.434 415.379 471.012 399.187 439.124 404.206C440.77 411.016 396.042 428.446 390.106 419.263Z" fill="#007CFF"/>
<mask id="mask10_196_727" style="mask-type:alpha" maskUnits="userSpaceOnUse" x="332" y="160" width="99" height="134">
<path d="M332.649 160.44H430.463V293.52H332.649V160.44Z" fill="white"/>
</mask>
<g mask="url(#mask10_196_727)">
<g opacity="0.199997">
<path d="M430.463 160.44C394.609 184.667 348.196 216.613 335.383 293.52H332.649C345.116 217.547 389.836 184.759 425.703 160.44H430.463Z" fill="black"/>
</g>
</g>
<path d="M245.024 401.022C222.398 401.024 199.946 390.806 189.043 374.106C182.306 363.788 174.483 342.173 197.783 313.336L199.858 315.013C183.375 335.412 180.327 355.881 191.275 372.649C204.602 393.06 236.07 403.324 262.916 396.02C290.42 388.536 307.119 364.61 308.731 330.382C314.244 213.306 376.443 177.242 421.859 150.909C450.075 134.549 470.462 122.728 465.982 97.7915C465.359 94.3315 463.98 91.9409 461.763 90.4835C455.959 86.6595 444.626 89.3022 431.504 92.3609C405.763 98.3569 370.51 106.57 349.508 70.8489L351.807 69.4969C371.815 103.529 404.576 95.8969 430.899 89.7635C444.62 86.5675 456.468 83.8075 463.23 88.2555C466.09 90.1382 467.847 93.1035 468.606 97.3209C473.418 124.097 451.255 136.946 423.196 153.217C378.311 179.241 316.839 214.884 311.394 330.506C309.724 365.968 292.31 390.784 263.616 398.593C257.568 400.238 251.287 401.021 245.024 401.022Z" fill="#007CFF"/>
<mask id="mask11_196_727" style="mask-type:alpha" maskUnits="userSpaceOnUse" x="182" y="69" width="288" height="333">
<path d="M182.146 69.4974H469.265V401.023H182.146V69.4974Z" fill="white"/>
</mask>
<g mask="url(#mask11_196_727)">
<g opacity="0.199997">
<path d="M245.024 401.022C222.398 401.024 199.946 390.806 189.043 374.106C182.306 363.788 174.483 342.173 197.783 313.336L199.858 315.013C183.375 335.412 180.327 355.881 191.275 372.649C204.602 393.06 236.07 403.324 262.916 396.02C290.42 388.536 307.119 364.61 308.731 330.382C314.244 213.306 376.443 177.242 421.859 150.909C450.075 134.549 470.462 122.728 465.982 97.7915C465.359 94.3315 463.98 91.9409 461.763 90.4835C455.959 86.6595 444.626 89.3022 431.504 92.3609C405.763 98.3569 370.51 106.57 349.508 70.8489L351.807 69.4969C371.815 103.529 404.576 95.8969 430.899 89.7635C444.62 86.5675 456.468 83.8075 463.23 88.2555C466.09 90.1382 467.847 93.1035 468.606 97.3209C473.418 124.097 451.255 136.946 423.196 153.217C378.311 179.241 316.839 214.884 311.394 330.506C309.724 365.968 292.31 390.784 263.616 398.593C257.568 400.238 251.287 401.021 245.024 401.022Z" fill="white"/>
</g>
</g>
<path d="M322.01 39.2657C331.15 39.099 340.119 42.111 340.119 42.111C340.119 42.111 354.739 67.1377 356.522 72.8657C355.908 78.519 346.368 87.7883 346.368 87.7883L322.01 39.2657Z" fill="#007CFF"/>
<mask id="mask12_196_727" style="mask-type:alpha" maskUnits="userSpaceOnUse" x="322" y="39" width="35" height="49">
<path d="M322.011 39.2588H356.523V87.7881H322.011V39.2588Z" fill="white"/>
</mask>
<g mask="url(#mask12_196_727)">
<g opacity="0.300003">
<path d="M322.011 39.2657C331.151 39.099 340.12 42.111 340.12 42.111C340.12 42.111 354.74 67.1377 356.523 72.8657C355.909 78.519 346.369 87.7883 346.369 87.7883L322.011 39.2657Z" fill="white"/>
</g>
</g>
<path d="M365.452 160.844C359.939 153.847 354.523 146.717 350.04 138.996C348.919 137.067 347.859 135.103 346.855 133.109C346.284 131.979 345.732 130.836 345.196 129.687C344.728 128.684 343.695 127.205 343.591 126.108C341.989 109.212 347.773 96.7746 342.22 83.2119L320.259 91.7959C320.259 91.7959 322.127 115.959 326.389 130.413C329.036 139.38 335.023 147.145 340.795 154.329C342.6 156.577 344.339 158.876 346.141 161.128C347.847 163.259 349.756 165.213 351.467 167.332C354.063 170.549 354.925 173.621 352.953 177.415C352.847 177.617 352.737 177.817 352.624 178.019C352.064 179.007 354.687 180.127 356.332 178.045C359.055 174.604 358.627 174.816 360.948 171.881C362.357 170.1 363.976 168.176 365.373 166.504C366.737 164.873 366.768 162.513 365.452 160.844Z" fill="#007CFF"/>
<mask id="mask13_196_727" style="mask-type:alpha" maskUnits="userSpaceOnUse" x="320" y="83" width="47" height="97">
<path d="M320.259 83.212H366.419V179.22H320.259V83.212Z" fill="white"/>
</mask>
<g mask="url(#mask13_196_727)">
<g opacity="0.699997">
<path d="M365.453 160.844C359.94 153.846 354.524 146.717 350.041 138.996C348.92 137.066 347.86 135.102 346.856 133.109C346.285 131.978 345.733 130.836 345.197 129.686C344.729 128.684 343.696 127.205 343.592 126.108C341.99 109.212 347.774 96.7743 342.221 83.2117L320.26 91.7957C320.26 91.7957 322.128 115.958 326.39 130.413C329.037 139.38 335.024 147.145 340.796 154.329C342.601 156.577 344.34 158.876 346.142 161.128C347.848 163.258 349.757 165.213 351.468 167.332C354.064 170.549 354.926 173.621 352.954 177.414C352.848 177.617 352.738 177.817 352.625 178.018C352.065 179.006 354.688 180.126 356.333 178.045C359.056 174.604 358.628 174.816 360.949 171.881C362.358 170.1 363.977 168.176 365.374 166.504C366.738 164.873 366.769 162.513 365.453 160.844Z" fill="white"/>
</g>
</g>
<mask id="mask14_196_727" style="mask-type:alpha" maskUnits="userSpaceOnUse" x="348" y="153" width="14" height="13">
<path d="M348.529 153.891H361.579V165.864H348.529V153.891Z" fill="white"/>
</mask>
<g mask="url(#mask14_196_727)">
<g opacity="0.300003">
<path d="M360.082 153.891C357.142 157.445 351.165 162.053 348.53 163.921C349.102 164.56 349.672 165.212 350.241 165.864C355.665 162.321 359.953 157.725 361.58 155.859C361.078 155.212 360.58 154.551 360.082 153.891Z" fill="#007CFF"/>
</g>
</g>
<mask id="mask15_196_727" style="mask-type:alpha" maskUnits="userSpaceOnUse" x="363" y="160" width="4" height="9">
<path d="M363.585 160.653H366.417V168.013H363.585V160.653Z" fill="white"/>
</mask>
<g mask="url(#mask15_196_727)">
<g opacity="0.300003">
<path d="M365.447 160.847C365.396 160.777 365.343 160.721 365.292 160.652C364.367 161.617 363.715 163.153 363.605 164.879C363.517 166.071 363.719 167.161 364.109 168.013C364.552 167.499 364.967 166.989 365.375 166.507C366.743 164.875 366.761 162.517 365.447 160.847Z" fill="#007CFF"/>
</g>
</g>
<path d="M316.79 55.2684C314.492 58.6084 311.784 61.9031 308.29 64.8591C306.554 66.3471 304.575 67.6911 302.4 68.8324C301.302 69.3924 300.15 69.8777 298.956 70.2791L298.056 70.5684L297.766 70.6591C297.555 70.7231 297.343 70.7804 297.13 70.8311C296.727 70.9217 296.323 70.9844 295.966 71.0137C294.522 71.1231 293.476 70.9164 292.614 70.7017C290.911 70.2391 289.774 69.6191 288.698 69.0177C287.636 68.4071 286.707 67.7791 285.826 67.1311C284.09 65.8097 282.519 64.4844 281.055 63.0684C278.107 60.2537 275.495 57.3364 273.068 54.0857C271.962 52.6057 272.266 50.5084 273.747 49.4031C274.89 48.5484 276.4 48.5351 277.538 49.2524L277.639 49.3191C280.786 51.3164 283.96 53.4231 287.058 55.3084C288.623 56.2311 290.151 57.1591 291.652 57.8804C292.391 58.2537 293.115 58.5937 293.768 58.8364C294.404 59.0831 295.039 59.2257 295.204 59.1911C295.274 59.1871 295.191 59.0937 294.7 59.1111C294.582 59.1177 294.414 59.1324 294.243 59.1711C294.144 59.1897 294.047 59.2137 293.952 59.2444C293.86 59.2751 293.991 59.2204 293.999 59.2124L294.439 58.9857C295.027 58.6857 295.59 58.3137 296.159 57.9351C297.3 57.1631 298.387 56.1817 299.495 55.1084C301.69 52.9271 303.802 50.2137 306.031 47.3924L306.062 47.3537C308.344 44.4631 312.539 43.9711 315.428 46.2537C318.198 48.4417 318.752 52.4004 316.79 55.2684Z" fill="#007CFF"/>
<mask id="mask16_196_727" style="mask-type:alpha" maskUnits="userSpaceOnUse" x="272" y="44" width="46" height="28">
<path d="M272.402 44.8186H317.956V71.0439H272.402V44.8186Z" fill="white"/>
</mask>
<g mask="url(#mask16_196_727)">
<g opacity="0.699997">
<path d="M316.79 55.2682C314.492 58.6082 311.784 61.9028 308.29 64.8588C306.554 66.3468 304.575 67.6908 302.4 68.8322C301.302 69.3922 300.15 69.8775 298.956 70.2788L298.056 70.5682L297.766 70.6588C297.555 70.7228 297.343 70.7802 297.13 70.8308C296.727 70.9215 296.323 70.9842 295.966 71.0135C294.522 71.1228 293.476 70.9162 292.614 70.7015C290.911 70.2388 289.774 69.6188 288.698 69.0175C287.636 68.4068 286.707 67.7788 285.826 67.1308C284.09 65.8095 282.519 64.4842 281.055 63.0682C278.107 60.2535 275.495 57.3362 273.068 54.0855C271.962 52.6055 272.266 50.5082 273.747 49.4028C274.89 48.5482 276.4 48.5348 277.538 49.2522L277.639 49.3188C280.786 51.3162 283.96 53.4228 287.058 55.3082C288.623 56.2308 290.151 57.1588 291.652 57.8802C292.391 58.2535 293.115 58.5935 293.768 58.8362C294.404 59.0828 295.039 59.2255 295.204 59.1908C295.274 59.1868 295.191 59.0935 294.7 59.1108C294.582 59.1175 294.414 59.1322 294.243 59.1708C294.144 59.1895 294.047 59.2135 293.952 59.2442C293.86 59.2748 293.991 59.2202 293.999 59.2122L294.439 58.9855C295.027 58.6855 295.59 58.3135 296.159 57.9348C297.3 57.1628 298.387 56.1815 299.495 55.1082C301.69 52.9268 303.802 50.2135 306.031 47.3922L306.062 47.3535C308.344 44.4628 312.539 43.9708 315.428 46.2535C318.198 48.4415 318.752 52.4002 316.79 55.2682Z" fill="white"/>
</g>
</g>
<path d="M268.047 46.5548L269.61 49.1761C269.61 49.1761 270.803 52.6641 273.191 53.3081L279.663 51.2121L279.339 50.6681C279.342 50.6694 279.346 50.6694 279.348 50.6708C278.519 49.4081 278.608 46.9721 278.899 44.9481C279.191 42.9228 278.14 42.8508 277.364 43.3548C276.915 43.6441 276.599 44.5694 276.235 45.5654C275.916 45.1268 275.575 44.7028 275.19 44.3201L273.212 42.3508C272.359 41.5014 270.992 41.4628 270.092 42.2628L268.49 43.6881C267.674 44.4134 267.487 45.6161 268.047 46.5548Z" fill="#007CFF"/>
<mask id="mask17_196_727" style="mask-type:alpha" maskUnits="userSpaceOnUse" x="267" y="41" width="13" height="13">
<path d="M267.726 41.6867H279.663V53.3093H267.726V41.6867Z" fill="white"/>
</mask>
<g mask="url(#mask17_196_727)">
<g opacity="0.699997">
<path d="M268.047 46.5548L269.61 49.1761C269.61 49.1761 270.803 52.6641 273.191 53.3081L279.663 51.2121L279.339 50.6681C279.342 50.6694 279.346 50.6694 279.348 50.6708C278.519 49.4081 278.608 46.9721 278.899 44.9481C279.191 42.9228 278.14 42.8508 277.364 43.3548C276.915 43.6441 276.599 44.5694 276.235 45.5654C275.916 45.1268 275.575 44.7028 275.19 44.3201L273.212 42.3508C272.359 41.5014 270.992 41.4628 270.092 42.2628L268.49 43.6881C267.674 44.4134 267.487 45.6161 268.047 46.5548Z" fill="white"/>
</g>
</g>
<path d="M328.565 36.9662C322.366 38.4702 313.85 42.0062 308.1 45.5902C306.061 46.8595 305.044 49.2702 305.524 51.6222C308.089 64.2089 313.942 81.0689 320.261 91.7942L349.744 79.5995C349.946 74.3982 342.788 57.5715 335.498 41.3089C334.188 38.3835 331.68 36.2102 328.565 36.9662Z" fill="#007CFF"/>
<mask id="mask18_196_727" style="mask-type:alpha" maskUnits="userSpaceOnUse" x="305" y="36" width="45" height="56">
<path d="M305.406 36.8147H349.748V91.7947H305.406V36.8147Z" fill="white"/>
</mask>
<g mask="url(#mask18_196_727)">
<g opacity="0.800003">
<path d="M328.565 36.9662C322.366 38.4702 313.85 42.0062 308.1 45.5902C306.061 46.8595 305.044 49.2702 305.524 51.6222C308.089 64.2089 313.942 81.0689 320.261 91.7942L349.744 79.5995C349.946 74.3982 342.788 57.5715 335.498 41.3089C334.188 38.3835 331.68 36.2102 328.565 36.9662Z" fill="white"/>
</g>
</g>
<mask id="mask19_196_727" style="mask-type:alpha" maskUnits="userSpaceOnUse" x="334" y="49" width="10" height="11">
<path d="M334.212 49.6561H343.584V59.9668H334.212V49.6561Z" fill="white"/>
</mask>
<g mask="url(#mask19_196_727)">
<g opacity="0.300003">
<path d="M340.062 51.6188L334.211 49.6561C335.52 53.0801 340.255 57.4188 343.584 59.9668C342.487 57.2921 341.298 54.4961 340.062 51.6188Z" fill="#007CFF"/>
</g>
</g>
<path d="M326.623 23.7605C324.189 19.1205 318.924 16.7831 312.601 17.3098C307.269 17.7551 302.543 23.1978 303.103 26.1391C303.663 29.0805 308.149 30.3258 308.963 31.3471L305.265 34.0271C303.425 35.3618 303.065 37.9565 304.471 39.7431C306.027 41.7205 308.076 43.7845 309.268 45.2405C319.487 44.9751 327.044 41.0778 329.767 37.3271C328.788 32.5551 329.043 28.3765 326.623 23.7605Z" fill="#007CFF"/>
<mask id="mask20_196_727" style="mask-type:alpha" maskUnits="userSpaceOnUse" x="303" y="17" width="27" height="29">
<path d="M303.059 17.2375H329.768V45.2415H303.059V17.2375Z" fill="white"/>
</mask>
<g mask="url(#mask20_196_727)">
<g opacity="0.800003">
<path d="M326.623 23.7605C324.189 19.1205 318.924 16.7831 312.601 17.3098C307.269 17.7551 302.543 23.1978 303.103 26.1391C303.663 29.0805 308.149 30.3258 308.963 31.3471L305.265 34.0271C303.425 35.3618 303.065 37.9565 304.471 39.7431C306.027 41.7205 308.076 43.7845 309.268 45.2405C319.487 44.9751 327.044 41.0778 329.767 37.3271C328.788 32.5551 329.043 28.3765 326.623 23.7605Z" fill="white"/>
</g>
</g>
<path d="M321.614 26.6342C323.643 31.8289 321.079 37.6849 315.885 39.7156C310.691 41.7449 304.835 39.1796 302.805 33.9862C300.775 28.7916 303.339 22.9369 308.534 20.9062C313.727 18.8769 319.585 21.4409 321.614 26.6342Z" fill="#1A2E35"/>
<path d="M408.185 146.796C408.035 142.41 407.846 142.849 407.719 139.109C407.643 136.838 407.633 134.324 407.618 132.146C407.603 130.02 406.101 128.2 404.018 127.777C402.25 127.418 400.478 127.077 398.715 126.702C396.414 126.212 394.139 125.682 391.879 125.026C390.126 124.517 388.39 123.956 386.673 123.336C384.834 122.673 383.018 121.948 381.221 121.177C379.119 120.276 377.045 119.316 374.983 118.326C372.683 117.222 370.401 116.082 368.126 114.926C359.35 100.398 359.162 90.8262 349.745 79.5995L329.531 88.7422C329.531 88.7422 344.383 115.096 354.498 126.268C360.319 132.7 369.455 135.598 377.601 137.702C383.478 139.218 389.438 140.38 395.406 141.477C397.725 141.902 400.247 142.068 402.242 143.452C403.814 144.544 404.627 146.245 405.093 148.054C405.187 148.425 405.267 148.797 405.338 149.172C405.55 150.289 408.275 149.446 408.185 146.796Z" fill="#007CFF"/>
<mask id="mask21_196_727" style="mask-type:alpha" maskUnits="userSpaceOnUse" x="329" y="79" width="80" height="71">
<path d="M329.53 79.5987H408.186V149.653H329.53V79.5987Z" fill="white"/>
</mask>
<g mask="url(#mask21_196_727)">
<g opacity="0.800003">
<path d="M408.184 146.796C408.034 142.41 407.845 142.849 407.718 139.109C407.642 136.838 407.632 134.324 407.617 132.146C407.602 130.02 406.1 128.2 404.017 127.777C402.249 127.418 400.477 127.077 398.714 126.702C396.413 126.212 394.138 125.682 391.878 125.026C390.125 124.517 388.389 123.956 386.672 123.336C384.833 122.673 383.017 121.948 381.22 121.177C379.118 120.276 377.044 119.316 374.982 118.326C372.682 117.222 370.4 116.082 368.125 114.926C359.349 100.398 359.161 90.8262 349.744 79.5995L329.53 88.7422C329.53 88.7422 344.382 115.096 354.497 126.268C360.318 132.7 369.454 135.598 377.6 137.702C383.477 139.218 389.437 140.38 395.405 141.477C397.724 141.902 400.246 142.068 402.241 143.452C403.813 144.544 404.626 146.245 405.092 148.054C405.186 148.425 405.266 148.797 405.337 149.172C405.549 150.289 408.274 149.446 408.184 146.796Z" fill="white"/>
</g>
</g>
<mask id="mask22_196_727" style="mask-type:alpha" maskUnits="userSpaceOnUse" x="392" y="125" width="6" height="17">
<path d="M392.636 125.991H397.933V141.438H392.636V125.991Z" fill="white"/>
</mask>
<g mask="url(#mask22_196_727)">
<g opacity="0.300003">
<path d="M397.933 126.534C397.138 126.359 396.329 126.181 395.525 125.991C395.588 130.594 393.428 138.547 392.636 140.957C393.476 141.115 394.33 141.279 395.17 141.438C397.512 135.11 397.88 128.411 397.933 126.534Z" fill="#007CFF"/>
</g>
</g>
<mask id="mask23_196_727" style="mask-type:alpha" maskUnits="userSpaceOnUse" x="402" y="127" width="6" height="6">
<path d="M402.749 127.524H407.628V132.911H402.749V127.524Z" fill="white"/>
</mask>
<g mask="url(#mask23_196_727)">
<g opacity="0.300003">
<path d="M407.614 132.146C407.6 130.014 406.102 128.199 404.021 127.773C403.602 127.686 403.172 127.597 402.749 127.523C402.837 128.778 403.616 130.231 404.92 131.387C405.773 132.158 406.74 132.67 407.628 132.91C407.617 132.645 407.616 132.395 407.614 132.146Z" fill="#007CFF"/>
</g>
</g>
<path d="M319.727 26.7201C320.267 28.7428 318.004 30.8668 316.194 29.1188C314.724 27.6988 312.51 25.3241 310.704 24.1948C308.848 23.0335 311.323 21.0121 314.239 21.7975C316.959 22.5281 319.187 24.6975 319.727 26.7201Z" fill="white"/>
<path d="M319.881 91.146C318.941 91.4926 320.658 93.0886 320.658 93.0886C320.658 93.0886 339.285 86.7046 350.652 80.1326C350.748 78.7593 349.748 78.0286 349.748 78.0286C349.748 78.0286 335.918 85.234 319.881 91.146Z" fill="#007CFF"/>
<mask id="mask24_196_727" style="mask-type:alpha" maskUnits="userSpaceOnUse" x="319" y="78" width="32" height="16">
<path d="M319.6 78.0295H350.658V93.0881H319.6V78.0295Z" fill="white"/>
</mask>
<g mask="url(#mask24_196_727)">
<g opacity="0.5">
<path d="M319.881 91.146C318.941 91.4926 320.658 93.0886 320.658 93.0886C320.658 93.0886 339.285 86.7046 350.652 80.1326C350.748 78.7593 349.748 78.0286 349.748 78.0286C349.748 78.0286 335.918 85.234 319.881 91.146Z" fill="white"/>
</g>
</g>
<path d="M333.614 36.0834C337.291 37.9407 340.752 39.9074 344.21 42.0847C345.931 43.1674 347.643 44.2807 349.332 45.482C351.034 46.6594 352.712 47.902 354.396 49.298L355.03 49.8154L355.816 50.526C356.376 51.0194 356.787 51.4754 357.199 51.9287C357.631 52.3967 357.987 52.8474 358.338 53.2967C358.7 53.7474 359.047 54.1967 359.358 54.6407C360.676 56.41 361.752 58.2127 362.806 59.9994C364.855 63.6207 366.63 67.238 368.094 71.13C368.747 72.866 367.868 74.8034 366.132 75.4567C364.828 75.946 363.411 75.574 362.508 74.6207L362.443 74.5514C359.764 71.714 357.195 68.7207 354.61 65.9407C352.08 63.1674 349.394 60.322 347.227 59.0847C344.2 57.1967 340.83 55.322 337.48 53.4754L327.398 47.8794L327.372 47.8647C324.152 46.078 322.991 42.0194 324.779 38.8007C326.52 35.6607 330.435 34.4847 333.614 36.0834Z" fill="#007CFF"/>
<mask id="mask25_196_727" style="mask-type:alpha" maskUnits="userSpaceOnUse" x="323" y="35" width="46" height="41">
<path d="M323.939 35.372H368.309V75.6733H323.939V35.372Z" fill="white"/>
</mask>
<g mask="url(#mask25_196_727)">
<g opacity="0.800003">
<path d="M333.614 36.0834C337.291 37.9407 340.752 39.9074 344.21 42.0847C345.931 43.1674 347.643 44.2807 349.332 45.482C351.034 46.6594 352.712 47.902 354.396 49.298L355.03 49.8154L355.816 50.526C356.376 51.0194 356.787 51.4754 357.199 51.9287C357.631 52.3967 357.987 52.8474 358.338 53.2967C358.7 53.7474 359.047 54.1967 359.358 54.6407C360.676 56.41 361.752 58.2127 362.806 59.9994C364.855 63.6207 366.63 67.238 368.094 71.13C368.747 72.866 367.868 74.8034 366.132 75.4567C364.828 75.946 363.411 75.574 362.508 74.6207L362.443 74.5514C359.764 71.714 357.195 68.7207 354.61 65.9407C352.08 63.1674 349.394 60.322 347.227 59.0847C344.2 57.1967 340.83 55.322 337.48 53.4754L327.398 47.8794L327.372 47.8647C324.152 46.078 322.991 42.0194 324.779 38.8007C326.52 35.6607 330.435 34.4847 333.614 36.0834Z" fill="white"/>
</g>
</g>
<path d="M371.311 77.6512L370.179 74.8166C370.179 74.8166 369.547 71.1846 367.29 70.1739L360.57 71.2312L360.803 71.8179C360.801 71.8166 360.798 71.8152 360.795 71.8152C361.417 73.1912 360.946 75.5819 360.341 77.5366C359.737 79.4912 360.763 79.7286 361.607 79.3512C362.097 79.1339 362.554 78.2712 363.07 77.3446C363.315 77.8286 363.586 78.2979 363.907 78.7379L365.551 80.9939C366.261 81.9659 367.605 82.2192 368.618 81.5686L370.425 80.4126C371.345 79.8246 371.717 78.6659 371.311 77.6512Z" fill="#007CFF"/>
<mask id="mask26_196_727" style="mask-type:alpha" maskUnits="userSpaceOnUse" x="360" y="70" width="12" height="12">
<path d="M360.158 70.1733H371.474V81.928H360.158V70.1733Z" fill="white"/>
</mask>
<g mask="url(#mask26_196_727)">
<g opacity="0.800003">
<path d="M371.31 77.651L370.178 74.8163C370.178 74.8163 369.546 71.1843 367.289 70.1736L360.569 71.231L360.802 71.8176C360.8 71.8163 360.797 71.815 360.794 71.815C361.416 73.191 360.945 75.5816 360.34 77.5363C359.736 79.491 360.762 79.7283 361.606 79.351C362.096 79.1336 362.553 78.271 363.069 77.3443C363.314 77.8283 363.585 78.2976 363.906 78.7376L365.55 80.9936C366.26 81.9656 367.604 82.219 368.617 81.5683L370.424 80.4123C371.344 79.8243 371.716 78.6656 371.31 77.651Z" fill="white"/>
</g>
</g>
<mask id="mask27_196_727" style="mask-type:alpha" maskUnits="userSpaceOnUse" x="316" y="51" width="19" height="25">
<path d="M316.376 51.4094H334.953V75.6667H316.376V51.4094Z" fill="white"/>
</mask>
<g mask="url(#mask27_196_727)">
<g opacity="0.300003">
<path d="M327.981 51.4088L326.356 51.5421L316.376 75.6541C316.964 75.6928 317.503 75.6434 318.001 75.5208C318.001 75.5208 331.015 70.6701 334.953 68.8928C332.301 63.4008 327.981 51.4088 327.981 51.4088Z" fill="#007CFF"/>
</g>
</g>
<path d="M309.757 57.7357C310.313 62.0784 313.569 71.3077 316.377 75.6531C321.25 73.9731 329.39 70.8037 333.329 69.0264C330.677 63.5344 327.884 55.9664 326.357 51.5411C322.158 51.8211 313.009 55.2677 309.757 57.7357Z" fill="white"/>
<mask id="mask28_196_727" style="mask-type:alpha" maskUnits="userSpaceOnUse" x="312" y="58" width="8" height="8">
<path d="M312.932 58.524H319.812V65.4041H312.932V58.524Z" fill="white"/>
</mask>
<g mask="url(#mask28_196_727)">
<g opacity="0.300003">
<path d="M319.666 62.9505C319.122 64.7692 317.205 65.8038 315.386 65.2585C313.566 64.7145 312.533 62.7985 313.077 60.9785C313.622 59.1585 315.538 58.1252 317.358 58.6692C319.177 59.2145 320.21 61.1318 319.666 62.9505Z" fill="#007CFF"/>
</g>
</g>
<mask id="mask29_196_727" style="mask-type:alpha" maskUnits="userSpaceOnUse" x="320" y="56" width="3" height="4">
<path d="M320.011 56.9067H322.265V59.1614H320.011V56.9067Z" fill="white"/>
</mask>
<g mask="url(#mask29_196_727)">
<g opacity="0.600006">
<path d="M322.218 58.3569C322.039 58.9529 321.411 59.2916 320.815 59.1129C320.219 58.9356 319.881 58.3076 320.058 57.7116C320.237 57.1143 320.865 56.7756 321.462 56.9543C322.058 57.1329 322.397 57.7609 322.218 58.3569Z" fill="#007CFF"/>
</g>
</g>
<mask id="mask30_196_727" style="mask-type:alpha" maskUnits="userSpaceOnUse" x="322" y="55" width="4" height="4">
<path d="M322.986 55.748H325.241V58.0027H322.986V55.748Z" fill="white"/>
</mask>
<g mask="url(#mask30_196_727)">
<g opacity="0.600006">
<path d="M325.193 57.1978C325.015 57.7938 324.387 58.1338 323.791 57.9538C323.195 57.7764 322.856 57.1484 323.033 56.5524C323.212 55.9551 323.841 55.6164 324.437 55.7951C325.033 55.9738 325.372 56.6018 325.193 57.1978Z" fill="#007CFF"/>
</g>
</g>
<mask id="mask31_196_727" style="mask-type:alpha" maskUnits="userSpaceOnUse" x="316" y="65" width="14" height="8">
<path d="M316.313 65.1573H329.388V72.4546H316.313V65.1573Z" fill="white"/>
</mask>
<g mask="url(#mask31_196_727)">
<g opacity="0.5">
<path d="M329.388 67.5819L317.059 72.4539L316.313 70.0299L328.643 65.1579L329.388 67.5819Z" fill="#007CFF"/>
</g>
</g>
<mask id="mask32_196_727" style="mask-type:alpha" maskUnits="userSpaceOnUse" x="194" y="235" width="93" height="92">
<path d="M194.409 235.707H286.956V326.227H194.409V235.707Z" fill="white"/>
</mask>
<g mask="url(#mask32_196_727)">
<g opacity="0.199997">
<path d="M261.343 252.893C261.076 262.947 260.329 270.667 259.103 276.027C257.529 282.88 255.089 287.893 251.769 291.067C248.463 294.241 244.543 295.827 240.023 295.827C233.169 295.827 227.929 292.092 224.329 284.613C223.743 283.4 223.209 282.013 222.716 280.468C215.103 287.013 208.009 294.16 201.489 301.84L194.409 310.187C198.236 314.067 202.583 317.253 207.436 319.773C215.743 324.067 226.636 326.227 240.129 326.227C242.503 326.227 244.796 326.16 247.023 326.027C255.183 313.947 261.943 300.96 267.156 287.333L286.956 235.707L261.343 252.893Z" fill="black"/>
</g>
</g>
<path d="M82.8506 323.277C90.3133 330.74 106.187 346.613 106.187 346.613L171.533 285.056C149.047 276.508 105.212 300.916 82.8506 323.277Z" fill="#1A2E35"/>
<path d="M164.229 404.656C156.766 397.192 140.893 381.32 140.893 381.32L202.45 315.972C210.998 338.46 186.59 382.295 164.229 404.656Z" fill="#1A2E35"/>
<path d="M253.531 257.599L278.985 208.52L229.908 233.975C214.14 242.154 199.581 252.478 186.648 264.652L102.985 343.412L144.093 384.52L222.853 300.858C235.029 287.924 245.352 273.366 253.531 257.599Z" fill="#007CFF"/>
<mask id="mask33_196_727" style="mask-type:alpha" maskUnits="userSpaceOnUse" x="102" y="208" width="177" height="177">
<path d="M102.986 208.52H278.986V384.52H102.986V208.52Z" fill="white"/>
</mask>
<g mask="url(#mask33_196_727)">
<g opacity="0.600006">
<path d="M253.532 257.599L278.986 208.52L229.909 233.975C214.141 242.154 199.582 252.478 186.649 264.652L102.986 343.412L144.094 384.52L222.854 300.858C235.03 287.924 245.353 273.366 253.532 257.599Z" fill="white"/>
</g>
</g>
<path d="M213.424 298.405C206.708 305.121 195.817 305.121 189.101 298.405C182.384 291.689 182.384 280.798 189.101 274.082C195.817 267.366 206.708 267.366 213.424 274.082C220.14 280.798 220.14 291.689 213.424 298.405Z" fill="white"/>
<path d="M209.073 294.055C204.759 298.368 197.765 298.368 193.451 294.055C189.137 289.741 189.137 282.747 193.451 278.432C197.765 274.119 204.759 274.119 209.073 278.432C213.388 282.747 213.388 289.741 209.073 294.055Z" fill="#007CFF"/>
<mask id="mask34_196_727" style="mask-type:alpha" maskUnits="userSpaceOnUse" x="117" y="298" width="73" height="72">
<path d="M117.751 298.496H189.011V369.755H117.751V298.496Z" fill="white"/>
</mask>
<g mask="url(#mask34_196_727)">
<g opacity="0.300003">
<path d="M157.993 369.755L117.752 329.512L150.7 298.495L189.011 336.806L157.993 369.755Z" fill="#007CFF"/>
</g>
</g>
<path d="M91.9594 360.155C61.8194 362.607 51.8341 381.896 48.4301 407.54C46.6941 420.619 45.9234 433.85 34.9421 441.507C31.8941 443.631 33.4074 448.368 37.1207 448.252C77.5727 446.99 96.4407 427.182 98.8101 418.887C97.9954 424.13 96.8061 428.267 95.4874 431.519C94.1341 434.862 97.8047 437.956 100.861 436.042C112.217 428.927 126.458 415.835 127.405 394.604C119.009 382.803 91.9594 360.155 91.9594 360.155Z" fill="#007CFF"/>
<mask id="mask35_196_727" style="mask-type:alpha" maskUnits="userSpaceOnUse" x="33" y="360" width="95" height="89">
<path d="M33.3125 360.155H127.405V448.255H33.3125V360.155Z" fill="white"/>
</mask>
<g mask="url(#mask35_196_727)">
<g opacity="0.199997">
<path d="M91.9594 360.155C61.8194 362.607 51.8341 381.896 48.4301 407.54C46.6941 420.619 45.9234 433.85 34.9421 441.507C31.8941 443.631 33.4074 448.368 37.1207 448.252C77.5727 446.99 96.4407 427.182 98.8101 418.887C97.9954 424.13 96.8061 428.267 95.4874 431.519C94.1341 434.862 97.8047 437.956 100.861 436.042C112.217 428.927 126.458 415.835 127.405 394.604C119.009 382.803 91.9594 360.155 91.9594 360.155Z" fill="white"/>
</g>
</g>
<path d="M132.034 403.733L83.7725 355.473L109.483 349.91L137.596 378.024L132.034 403.733Z" fill="#007CFF"/>
</svg>
